# Exported from Wings 3D 1.5.4
mtllib space_ship2.mtl
o cube1
#10 vertices, 14 faces
v -1.99069816 4.9365365e-4 3.91964705
v 2.14561428 1.6784224e-5 0.11294530
v -2.57235656 -1.41421348 4.9365365e-4
v -1.99069816 -4.9365365e-4 -4.00379902
v 2.14561428 -1.6784224e-5 -0.15645187
v 2.14561428 -4.8083258e-2 -2.0305916e-2
v -2.70029721 -0.84230667 0.0000000e+0
v -0.21337114 -0.73114837 -9.9061311e-3
v -2.28152736 -0.70685991 1.96007035
v -2.28152736 -0.70735356 -2.00165268
vn -0.67181306 0.70191473 0.23660714
vn 0.82952598 -0.44653576 0.33539898
vn -0.51836421 -0.85515206 3.6737792e-3
vn -0.89695068 0.31563367 -0.30960438
vn 0.92418585 0.10272186 -0.36787054
vn 0.64313338 -0.76574972 2.6109729e-3
vn -0.99896346 -4.5480102e-2 1.8888569e-3
vn 0.27861603 -0.96039801 2.9607002e-3
vn -0.48306290 -0.79810890 0.36010058
vn -0.48497881 -0.80002790 -0.35320095
g cube1_blue
usemtl blue
s 1
f 1//1 5//5 4//4
f 1//1 7//7 9//9
f 1//1 9//9 8//8 2//2
f 2//2 5//5 1//1
f 2//2 8//8 6//6
f 3//3 7//7 10//10
f 3//3 9//9 7//7
f 4//4 10//10 7//7
f 5//5 8//8 10//10 4//4
f 6//6 8//8 5//5
g cube1_grey1
usemtl grey1
s 1
f 8//8 9//9 3//3
f 10//10 8//8 3//3
g cube1_red
usemtl red
s 1
f 4//4 7//7 1//1
g cube1_yellow
usemtl yellow
s 1
f 2//2 6//6 5//5
